<?xml version="1.0" encoding="UTF-8" standalone="no"?>
<!-- Created with Inkscape (http://www.inkscape.org/) -->

<svg
   width="83.334709mm"
   height="83.334717mm"
   viewBox="0 0 83.334709 83.334717"
   version="1.1"
   id="svg1"
   xml:space="preserve"
   xmlns:inkscape="http://www.inkscape.org/namespaces/inkscape"
   xmlns:sodipodi="http://sodipodi.sourceforge.net/DTD/sodipodi-0.dtd"
   xmlns="http://www.w3.org/2000/svg"
   xmlns:svg="http://www.w3.org/2000/svg"><sodipodi:namedview
     id="namedview1"
     pagecolor="#ffffff"
     bordercolor="#000000"
     borderopacity="0.25"
     inkscape:showpageshadow="2"
     inkscape:pageopacity="0.0"
     inkscape:pagecheckerboard="0"
     inkscape:deskcolor="#d1d1d1"
     inkscape:document-units="mm"><inkscape:page
       x="0"
       y="0"
       width="83.334709"
       height="83.334717"
       id="page2"
       margin="0"
       bleed="0" /></sodipodi:namedview><defs
     id="defs1" /><g
     inkscape:label="Layer 1"
     inkscape:groupmode="layer"
     id="layer1"
     transform="translate(-22.2119,-114.02748)"><g
       style="fill:#ffffff;fill-opacity:0;stroke:#00f809;stroke-opacity:1"
       id="g2"
       transform="matrix(4.1660897,0,0,4.1660897,13.886181,105.70176)"
       inkscape:export-filename="chart-up.svg"
       inkscape:export-xdpi="96"
       inkscape:export-ydpi="96"><path
         d="m 17,9 -5.4343,5.4343 c -0.198,0.198 -0.297,0.297 -0.4112,0.3341 -0.1004,0.0327 -0.2086,0.0327 -0.309,0 -0.1142,-0.0371 -0.2132,-0.1361 -0.4112,-0.3341 L 8.56569,12.5657 c -0.19801,-0.198 -0.29702,-0.297 -0.41118,-0.3341 -0.10042,-0.0327 -0.2086,-0.0327 -0.30902,0 -0.11416,0.0371 -0.21317,0.1361 -0.41118,0.3341 L 3,17 M 17,9 h -4 m 4,0 v 4 m -9.2,8 h 8.4 c 1.6802,0 2.5202,0 3.162,-0.327 0.5645,-0.2876 1.0234,-0.7465 1.311,-1.311 C 21,18.7202 21,17.8802 21,16.2 V 7.8 C 21,6.11984 21,5.27976 20.673,4.63803 20.3854,4.07354 19.9265,3.6146 19.362,3.32698 18.7202,3 17.8802,3 16.2,3 H 7.8 C 6.11984,3 5.27976,3 4.63803,3.32698 4.07354,3.6146 3.6146,4.07354 3.32698,4.63803 3,5.27976 3,6.11984 3,7.8 v 8.4 c 0,1.6802 0,2.5202 0.32698,3.162 0.28762,0.5645 0.74656,1.0234 1.31105,1.311 C 5.27976,21 6.11984,21 7.8,21 Z"
         stroke="#000000"
         stroke-width="2"
         stroke-linecap="round"
         stroke-linejoin="round"
         id="path1-6"
         style="fill:#ffffff;fill-opacity:0;stroke:#00f809;stroke-opacity:1" /></g></g></svg>
