<?xml version="1.0" encoding="UTF-8" standalone="no"?>
<!-- Created with Inkscape (http://www.inkscape.org/) -->

<svg
   width="120.17025mm"
   height="31.119486mm"
   viewBox="0 0 120.17025 31.119486"
   version="1.1"
   id="svg1"
   xml:space="preserve"
   xmlns:inkscape="http://www.inkscape.org/namespaces/inkscape"
   xmlns:sodipodi="http://sodipodi.sourceforge.net/DTD/sodipodi-0.dtd"
   xmlns="http://www.w3.org/2000/svg"
   xmlns:svg="http://www.w3.org/2000/svg"><sodipodi:namedview
     id="namedview1"
     pagecolor="#ffffff"
     bordercolor="#000000"
     borderopacity="0.25"
     inkscape:showpageshadow="2"
     inkscape:pageopacity="0.0"
     inkscape:pagecheckerboard="0"
     inkscape:deskcolor="#d1d1d1"
     inkscape:document-units="mm"><inkscape:page
       x="0"
       y="4.314814e-17"
       width="120.17025"
       height="31.119488"
       id="page2"
       margin="0"
       bleed="0" /></sodipodi:namedview><defs
     id="defs1" /><g
     inkscape:label="Layer 1"
     inkscape:groupmode="layer"
     id="layer1"
     transform="translate(-15.018184,-14.681198)"><g
       id="g3"
       transform="matrix(0.31004818,0,0,0.31004818,15.173185,14.836198)"
       style="stroke:#797979;stroke-width:0.999845;stroke-dasharray:none;stroke-opacity:1"><g
         id="g33"
         style="stroke-width:0.999845;stroke-dasharray:none"><g
           fill="#465b94"
           id="g1"
           style="fill:#777777;fill-opacity:1;stroke:#7d7d7d;stroke-width:0.999845;stroke-dasharray:none;stroke-opacity:1"><path
             d="m 123.108,6.785 h 17.888 v 4.558 h -12.685 v 7.095 h 10.32 v 4.515 h -10.32 V 33.66 h -5.203 z m 23.994,3.44 c -1.979,0 -3.096,-1.204 -3.096,-3.053 0,-1.806 1.117,-3.053 3.096,-3.053 2.021,0 3.139,1.247 3.139,3.053 -0.001,1.849 -1.119,3.053 -3.139,3.053 z m -2.538,23.434 V 13.965 l 5.074,-0.731 v 20.425 z m 22.802,0 V 21.576 c 0,-2.924 -1.16,-3.913 -3.439,-3.913 -1.763,0 -3.397,0.903 -4.386,1.849 v 14.147 h -5.074 V 13.922 l 5.074,-0.688 v 3.139 c 1.763,-1.935 4.128,-3.182 6.535,-3.182 3.999,0 6.364,2.58 6.364,6.837 V 33.659 Z M 190.388,4.936 195.463,4.248 V 33.66 h -5.075 v -1.935 c -1.332,1.29 -3.139,2.58 -5.59,2.58 -5.245,0 -8.643,-4.257 -8.643,-10.406 0,-6.321 4.386,-10.707 10.019,-10.707 1.419,0 2.968,0.258 4.214,0.645 z m -3.741,12.297 c -3.397,0 -5.332,2.795 -5.332,6.45 0,3.87 1.935,6.321 4.988,6.321 1.677,0 2.967,-0.602 4.084,-1.634 v -9.976 c -0.988,-0.73 -2.235,-1.161 -3.74,-1.161 z m 28.94,-3.397 v 12.083 c 0,2.924 1.203,3.87 3.354,3.87 1.805,0 3.396,-0.817 4.342,-1.72 V 13.836 h 5.074 V 33.53 l -5.074,0.688 v -2.924 c -1.633,1.763 -3.998,3.01 -6.535,3.01 -3.869,0 -6.234,-2.58 -6.234,-6.837 V 13.836 Z m 24.061,20.511 c -2.58,0 -5.719,-0.731 -7.697,-1.849 l 1.119,-3.956 c 1.977,1.118 4.514,1.849 6.707,1.849 1.979,0 3.268,-0.817 3.268,-2.193 0,-1.548 -1.676,-2.107 -3.998,-2.666 -3.742,-0.86 -6.709,-2.408 -6.709,-6.149 0,-3.741 3.139,-6.192 7.912,-6.192 2.451,0 5.375,0.645 7.225,1.591 l -1.119,3.956 c -1.934,-0.989 -4.471,-1.634 -6.234,-1.634 -1.85,0 -2.967,0.688 -2.967,1.978 0,1.505 1.678,2.021 4,2.58 3.783,0.903 6.75,2.365 6.75,6.235 -0.001,3.698 -3.183,6.45 -8.257,6.45 z m 31.045,-0.043 c -5.805,0 -10.018,-3.956 -10.018,-10.535 0,-6.536 4.428,-10.621 10.277,-10.621 5.848,0 10.018,4.042 10.018,10.578 0,6.493 -4.47,10.578 -10.277,10.578 z m 0.086,-17.071 c -3.311,0 -5.115,2.666 -5.115,6.493 0,3.784 1.891,6.45 5.203,6.45 3.268,0 5.072,-2.58 5.072,-6.407 0,-3.827 -1.891,-6.536 -5.16,-6.536 z m 26.867,16.426 V 21.576 c 0,-2.924 -1.16,-3.913 -3.439,-3.913 -1.764,0 -3.398,0.903 -4.387,1.849 v 14.147 h -5.074 V 13.922 l 5.074,-0.688 v 3.139 c 1.764,-1.935 4.129,-3.182 6.535,-3.182 4,0 6.365,2.58 6.365,6.837 v 13.631 z"
             id="path1"
             style="fill:#777777;fill-opacity:1;stroke:#7d7d7d;stroke-width:0.999845;stroke-dasharray:none;stroke-opacity:1" /></g><g
           fill="#465b94"
           id="g2"
           style="fill:#777777;fill-opacity:1;stroke:#7d7d7d;stroke-width:0.999845;stroke-dasharray:none;stroke-opacity:1"><path
             d="m 123.108,51.579 h 28.285 v 7.207 h -20.058 v 11.219 h 16.319 v 7.139 h -16.319 v 16.931 h -8.227 z m 47.891,38.892 c -2.244,2.72 -4.964,4.623 -8.84,4.623 -5.644,0 -9.723,-3.875 -9.723,-8.839 0,-5.779 4.216,-10.675 18.562,-11.15 v -0.748 c 0,-4.216 -1.769,-5.983 -6.256,-5.983 -3.195,0 -7.071,1.428 -10.403,3.331 l -1.631,-6.323 c 3.06,-1.903 7.955,-3.671 13.122,-3.671 9.655,0 13.395,4.283 13.19,12.918 v 11.219 c 0,2.38 0.408,2.72 2.788,2.856 l -0.612,6.051 c -5.983,0.681 -8.771,-1.155 -9.927,-4.283 h -0.27 z m 0,-11.152 c -7.819,0.952 -10.675,2.516 -10.675,5.848 0,2.38 1.835,4.08 4.691,4.08 2.516,0 4.555,-1.156 5.983,-2.72 v -7.208 z m 29.491,15.775 c -10.2,0 -16.251,-6.323 -16.251,-16.59 0,-10.199 6.664,-16.794 16.523,-16.794 4.283,0 7.955,0.951 10.811,2.651 l -1.699,6.459 c -2.584,-1.632 -5.576,-2.516 -8.5,-2.516 -5.779,0 -8.907,3.943 -8.907,9.995 0,6.392 3.604,10.131 8.907,10.131 3.264,0 6.256,-0.884 8.703,-2.447 l 1.293,6.527 c -2.722,1.633 -6.665,2.584 -10.88,2.584 z m 21.664,-14.958 c 0.34,5.1 3.809,8.567 9.383,8.567 3.332,0 6.936,-1.088 9.791,-2.856 l 1.021,6.664 c -2.992,1.632 -7.141,2.583 -11.355,2.583 -10.062,0 -16.727,-6.391 -16.727,-16.386 0,-10.199 6.799,-16.998 16.182,-16.998 8.295,0 12.92,5.031 12.92,12.714 0,1.7 -0.273,3.876 -0.68,5.235 l -20.535,0.272 z m 13.668,-4.964 v -0.544 c 0,-4.215 -1.836,-6.867 -5.984,-6.867 -4.42,0 -7.07,3.604 -7.479,7.479 z m 27.939,19.854 c -2.039,0 -4.963,-0.408 -7.002,-1.088 l -7.684,1.155 V 48.655 l 8.023,-1.088 v 18.154 c 2.107,-2.039 4.963,-4.011 8.771,-4.011 8.295,0 13.734,6.73 13.734,16.386 0.002,9.995 -6.934,16.93 -15.842,16.93 z M 263.558,68.44 c -2.652,0 -4.691,1.021 -6.459,2.584 v 15.843 c 1.496,1.155 3.535,1.768 5.914,1.768 5.373,0 8.432,-4.352 8.432,-10.199 0,-6.12 -2.924,-9.996 -7.887,-9.996 z m 35.693,26.654 c -9.18,0 -15.844,-6.255 -15.844,-16.658 0,-10.335 7.004,-16.794 16.252,-16.794 9.246,0 15.842,6.392 15.842,16.727 0,10.266 -7.072,16.725 -16.25,16.725 z m 0.135,-26.993 c -5.234,0 -8.09,4.216 -8.09,10.268 0,5.983 2.99,10.198 8.227,10.198 5.168,0 8.023,-4.079 8.023,-10.131 0,-6.051 -2.992,-10.335 -8.16,-10.335 z m 35.85,26.993 c -9.178,0 -15.842,-6.255 -15.842,-16.658 0,-10.335 7.004,-16.794 16.25,-16.794 9.248,0 15.842,6.392 15.842,16.727 0,10.266 -7.07,16.725 -16.25,16.725 z m 0.137,-26.993 c -5.236,0 -8.092,4.216 -8.092,10.268 0,5.983 2.992,10.198 8.229,10.198 5.166,0 8.021,-4.079 8.021,-10.131 0,-6.051 -2.99,-10.335 -8.158,-10.335 z m 29.668,10.878 v 15.095 h -8.023 V 48.655 l 8.023,-1.088 v 29.101 h 0.135 L 376.395,62.73 h 9.588 l -12.987,14.89 13.055,16.454 h -9.588 L 365.176,78.979 Z"
             id="path2"
             style="fill:#777777;fill-opacity:1;stroke:#7d7d7d;stroke-width:0.999845;stroke-dasharray:none;stroke-opacity:1" /></g><path
           d="M 93.885,0 H 5.484 C 2.4548127,-0.00110534 -0.00110534,2.4548127 0,5.484 v 88.4 c 0,3.02873 2.4552704,5.484 5.484,5.484 h 88.401 c 3.02811,-0.0011 5.482448,-2.45589 5.483,-5.484 V 5.484 C 99.368552,2.4554322 96.913568,-5.0369856e-8 93.885,0 Z"
           fill="#485a95"
           id="path3"
           style="fill:#777777;fill-opacity:1;stroke:#7d7d7d;stroke-width:0.999845;stroke-dasharray:none;stroke-opacity:1"
           sodipodi:nodetypes="sccsscccs" /><path
           d="m 81.479,60.888 1.933,-14.997 h -14.85 v -9.575 c 0,-4.341 1.205,-7.3 7.432,-7.3 l 7.94,-0.003 V 15.598 c -1.373,-0.182 -6.086,-0.59 -11.571,-0.59 -11.45,0 -19.289,6.989 -19.289,19.824 v 11.06 H 40.126 V 60.889 H 53.075 V 99.37 H 68.563 V 60.888 Z"
           fill="#ffffff"
           id="path4"
           style="fill:#ffffff;fill-opacity:1;stroke:#7d7d7d;stroke-width:0.999845;stroke-dasharray:none;stroke-opacity:1" /></g></g></g></svg>
