<?xml version="1.0" encoding="UTF-8" standalone="no"?>
<!-- Created with Inkscape (http://www.inkscape.org/) -->

<svg
   width="100.5151mm"
   height="40.332325mm"
   viewBox="0 0 100.5151 40.332325"
   version="1.1"
   id="svg1"
   xml:space="preserve"
   xmlns:inkscape="http://www.inkscape.org/namespaces/inkscape"
   xmlns:sodipodi="http://sodipodi.sourceforge.net/DTD/sodipodi-0.dtd"
   xmlns="http://www.w3.org/2000/svg"
   xmlns:svg="http://www.w3.org/2000/svg"><sodipodi:namedview
     id="namedview1"
     pagecolor="#ffffff"
     bordercolor="#000000"
     borderopacity="0.25"
     inkscape:showpageshadow="2"
     inkscape:pageopacity="0.0"
     inkscape:pagecheckerboard="0"
     inkscape:deskcolor="#d1d1d1"
     inkscape:document-units="mm"><inkscape:page
       x="0"
       y="0"
       width="100.5151"
       height="40.332325"
       id="page2"
       margin="0"
       bleed="0" /></sodipodi:namedview><defs
     id="defs1" /><g
     inkscape:label="Layer 1"
     inkscape:groupmode="layer"
     id="layer1"
     transform="translate(-6.0200407,-109.16454)"><g
       id="g35"><g
         id="g4"
         transform="matrix(0.5326227,0,0,0.5326227,4.8436045,77.997063)"
         style="clip-rule:evenodd;fill:#777777;fill-opacity:1;fill-rule:evenodd;stroke:#7d7d7d;stroke-opacity:1"><path
           d="m 162.027,79.518 c 0.336,0.896 0.447,1.681 0.559,2.241 0.113,0.56 0.113,1.12 0.225,1.568 a 5.951,5.951 0 0 1 0.672,-1.568 c 0.225,-0.56 0.672,-1.345 1.232,-2.241 l 14.229,-20.501 h 10.979 l -22.631,30.023 7.955,17.252 H 164.38 l -2.689,-8.178 c -0.223,-0.561 -0.336,-1.232 -0.559,-1.904 0,-0.561 -0.113,-1.233 -0.113,-1.905 -0.336,0.672 -0.559,1.344 -0.896,1.905 -0.336,0.672 -0.672,1.344 -1.008,1.904 l -5.377,8.178 H 142.984 L 156.65,89.04 150.041,74.028 h 10.42 z"
           id="path2-1"
           style="fill:#777777;fill-opacity:1;stroke:#7d7d7d;stroke-opacity:1" /><path
           d="m 146.23,74.029 -5.49,32.264 h -8.85 l 0.896,-5.266 c -1.568,2.24 -3.361,3.922 -5.041,4.93 -1.793,1.008 -3.697,1.568 -5.938,1.568 -3.586,0 -6.273,-1.568 -7.842,-4.705 -1.682,-3.137 -2.018,-7.395 -1.121,-12.66 0.896,-5.266 2.689,-9.41 5.49,-12.547 2.801,-3.025 6.162,-4.594 10.082,-4.594 2.018,0 3.697,0.448 5.041,1.569 1.232,1.008 2.24,2.577 3.025,4.705 l 0.896,-5.265 h 8.852 z m -11.203,16.132 c 0.449,-2.576 0.225,-4.593 -0.672,-6.05 -0.896,-1.456 -2.352,-2.128 -4.258,-2.128 -2.016,0 -3.695,0.672 -5.041,2.128 -1.344,1.457 -2.24,3.474 -2.688,6.05 -0.449,2.465 -0.225,4.481 0.672,5.937 0.896,1.346 2.352,2.129 4.256,2.129 1.906,0 3.586,-0.783 5.043,-2.129 1.345,-1.456 2.241,-3.473 2.688,-5.937 z m -48.283,16.132 h 9.522 l 2.353,-13.332 c 0.447,-3.137 1.568,-5.489 3.137,-7.282 1.568,-1.681 3.473,-2.465 5.824,-2.465 0.561,0 1.01,0 1.57,0.112 0.559,0.112 1.119,0.336 1.68,0.56 l 2.688,-10.419 c -0.447,0 -0.783,-0.112 -1.232,-0.112 h -1.119 c -2.24,0 -4.369,0.672 -6.273,2.017 -1.793,1.456 -3.473,3.473 -4.818,6.273 l 1.232,-7.618 h -9.074 z m -21.846,0 h 10.755 l 6.162,-37.642 h 81.332 l 5.266,-9.186 H 30.058 l -1.905,9.186 h 42.795 z m -42.57,0 5.489,-32.264 h 8.851 l -1.121,6.497 c 1.68,-2.576 3.473,-4.48 5.378,-5.713 1.904,-1.232 4.033,-1.793 6.385,-1.793 1.792,0 3.25,0.336 4.481,1.009 1.345,0.672 2.241,1.568 2.913,2.913 0.56,1.008 0.784,2.353 0.896,3.921 0,1.568 -0.224,3.921 -0.784,6.946 l -3.137,18.485 h -9.634 l 2.913,-17.252 c 0.448,-2.577 0.448,-4.481 -0.112,-5.602 -0.448,-1.232 -1.568,-1.792 -3.137,-1.792 -2.017,0 -3.585,0.896 -4.817,2.577 -1.232,1.792 -2.128,4.593 -2.8,8.514 L 31.74,106.295 H 22.328 Z M 11.461,68.651 13.478,59.129 h 9.634 l -1.905,9.522 z m -6.162,37.642 5.49,-32.264 h 9.634 l -5.489,32.264 z M 3.62,131.5 5.412,131.387 c 0,0.449 0.112,0.672 0.448,0.896 0.224,0.225 0.672,0.336 1.232,0.336 0.56,0 1.008,-0.111 1.345,-0.225 0.336,-0.223 0.448,-0.447 0.56,-0.672 0,-0.111 0,-0.223 -0.112,-0.336 -0.111,-0.111 -0.336,-0.225 -0.56,-0.336 -0.225,0 -0.673,-0.111 -1.345,-0.225 -0.896,-0.223 -1.568,-0.447 -1.905,-0.672 -0.448,-0.336 -0.56,-0.783 -0.448,-1.232 0.112,-0.336 0.336,-0.672 0.672,-0.896 0.225,-0.336 0.672,-0.559 1.232,-0.672 0.448,-0.223 1.12,-0.223 1.793,-0.223 1.008,0 1.792,0.111 2.353,0.447 0.448,0.447 0.56,0.896 0.448,1.457 H 9.333 c 0,-0.336 0,-0.561 -0.224,-0.672 -0.224,-0.113 -0.672,-0.225 -1.12,-0.225 -0.56,0 -0.896,0.111 -1.233,0.225 a 0.867,0.867 0 0 0 -0.447,0.447 c 0,0.111 0,0.225 0.224,0.336 0.224,0.225 0.672,0.336 1.457,0.447 0.896,0.113 1.456,0.338 1.792,0.449 0.448,0.225 0.672,0.336 0.896,0.672 0.112,0.225 0.112,0.561 0.112,1.008 -0.112,0.336 -0.336,0.672 -0.672,1.008 -0.448,0.338 -0.896,0.561 -1.344,0.674 -0.561,0.223 -1.233,0.336 -2.018,0.336 -1.119,0 -1.904,-0.225 -2.464,-0.561 C 3.843,132.73 3.62,132.172 3.62,131.5 Z m 9.746,-4.258 h 1.792 l -0.897,3.473 c -0.112,0.447 -0.224,0.896 -0.224,1.008 0,0.225 0.112,0.449 0.448,0.672 0.224,0.113 0.561,0.225 1.12,0.225 0.448,0 0.896,-0.111 1.12,-0.225 0.336,-0.223 0.561,-0.336 0.673,-0.559 0.112,-0.225 0.224,-0.561 0.336,-1.121 l 0.784,-3.473 h 1.793 l -0.784,3.361 c -0.225,0.672 -0.336,1.232 -0.561,1.568 -0.112,0.336 -0.448,0.559 -0.672,0.783 -0.335,0.225 -0.784,0.449 -1.232,0.561 -0.448,0.112 -1.008,0.225 -1.68,0.225 a 7.308,7.308 0 0 1 -1.905,-0.225 c -0.336,-0.225 -0.672,-0.336 -0.896,-0.561 -0.225,-0.225 -0.225,-0.447 -0.336,-0.783 0,-0.336 0.112,-0.896 0.225,-1.568 z m 7.281,4.258 1.793,-0.113 c 0,0.449 0.112,0.672 0.448,0.896 0.224,0.225 0.672,0.336 1.232,0.336 0.56,0 1.008,-0.111 1.344,-0.225 0.336,-0.223 0.448,-0.447 0.56,-0.672 0,-0.111 0,-0.223 -0.112,-0.336 -0.112,-0.111 -0.224,-0.225 -0.561,-0.336 -0.224,0 -0.672,-0.111 -1.344,-0.225 -0.896,-0.223 -1.568,-0.447 -1.792,-0.672 -0.561,-0.336 -0.673,-0.783 -0.561,-1.232 0.112,-0.336 0.336,-0.672 0.561,-0.896 0.336,-0.336 0.783,-0.559 1.344,-0.672 0.448,-0.223 1.008,-0.223 1.792,-0.223 1.009,0 1.793,0.111 2.353,0.447 0.448,0.447 0.56,0.896 0.448,1.457 H 26.36 c 0,-0.336 -0.112,-0.561 -0.224,-0.672 -0.224,-0.113 -0.672,-0.225 -1.12,-0.225 -0.56,0 -0.896,0.111 -1.233,0.225 a 0.869,0.869 0 0 0 -0.448,0.447 c 0,0.111 0,0.225 0.225,0.336 0.224,0.225 0.673,0.336 1.457,0.447 0.896,0.113 1.456,0.338 1.905,0.449 0.336,0.225 0.56,0.336 0.784,0.672 0.112,0.225 0.224,0.561 0.112,1.008 -0.112,0.336 -0.336,0.672 -0.672,1.008 -0.448,0.338 -0.896,0.561 -1.345,0.674 -0.56,0.223 -1.232,0.336 -2.017,0.336 -1.12,0 -1.904,-0.225 -2.464,-0.561 -0.448,-0.448 -0.673,-1.006 -0.673,-1.678 z m 8.178,2.127 1.568,-6.385 h 2.801 c 1.121,0 1.792,0 2.128,0.111 0.448,0 0.785,0.225 1.121,0.561 0.224,0.336 0.336,0.785 0.224,1.232 a 2.166,2.166 0 0 1 -0.56,1.008 c -0.336,0.225 -0.561,0.449 -0.896,0.672 -0.336,0.113 -0.672,0.225 -1.008,0.225 -0.448,0.111 -1.12,0.111 -1.904,0.111 h -1.12 l -0.561,2.465 z m 3.026,-5.377 -0.448,1.904 h 1.007 c 0.673,0 1.233,-0.111 1.457,-0.111 0.224,-0.111 0.448,-0.225 0.561,-0.336 0.224,-0.225 0.335,-0.336 0.335,-0.561 0.112,-0.225 0,-0.336 -0.112,-0.561 -0.112,-0.111 -0.336,-0.223 -0.672,-0.223 -0.112,-0.113 -0.561,-0.113 -1.233,-0.113 h -0.895 z m 5.152,5.377 1.569,-6.385 h 6.497 l -0.224,1.008 h -4.817 l -0.336,1.457 h 4.481 l -0.336,1.008 h -4.369 l -0.448,1.793 h 4.929 l -0.336,1.119 z m 8.178,0 1.569,-6.385 h 1.681 l 2.576,4.258 1.12,-4.258 h 1.568 l -1.568,6.385 h -1.792 l -2.464,-4.145 -1.009,4.145 z m 8.851,-2.127 1.792,-0.113 c 0,0.449 0.112,0.672 0.448,0.896 0.224,0.225 0.672,0.336 1.232,0.336 a 4.12,4.12 0 0 0 1.344,-0.225 c 0.336,-0.223 0.448,-0.447 0.56,-0.672 0,-0.111 0,-0.223 -0.112,-0.336 -0.112,-0.111 -0.224,-0.225 -0.56,-0.336 -0.225,0 -0.672,-0.111 -1.345,-0.225 -0.896,-0.223 -1.568,-0.447 -1.792,-0.672 -0.561,-0.336 -0.672,-0.783 -0.561,-1.232 a 2.44,2.44 0 0 1 0.561,-0.896 c 0.336,-0.336 0.784,-0.559 1.344,-0.672 0.448,-0.223 1.121,-0.223 1.793,-0.223 1.008,0 1.792,0.111 2.353,0.447 0.448,0.447 0.56,0.896 0.448,1.457 h -1.793 c 0.112,-0.336 -0.112,-0.561 -0.224,-0.672 -0.224,-0.113 -0.561,-0.225 -1.12,-0.225 -0.561,0 -0.896,0.111 -1.232,0.225 a 0.865,0.865 0 0 0 -0.448,0.447 c 0,0.111 0.112,0.225 0.224,0.336 0.225,0.225 0.673,0.336 1.568,0.447 0.785,0.113 1.345,0.338 1.793,0.449 0.336,0.225 0.56,0.336 0.784,0.672 0.112,0.225 0.224,0.561 0.112,1.008 -0.112,0.336 -0.336,0.672 -0.672,1.008 -0.447,0.338 -0.896,0.561 -1.344,0.674 -0.56,0.223 -1.232,0.336 -2.016,0.336 -1.12,0 -1.905,-0.225 -2.465,-0.561 -0.449,-0.448 -0.672,-1.006 -0.672,-1.678 z m 8.066,2.127 1.568,-6.385 h 1.792 l -1.568,6.385 z m 3.92,-3.248 c 0.112,-0.561 0.448,-1.121 0.785,-1.568 0.336,-0.336 0.672,-0.672 1.008,-0.896 0.448,-0.225 0.896,-0.447 1.344,-0.561 0.56,-0.111 1.232,-0.223 1.905,-0.223 1.344,0 2.24,0.223 2.912,0.895 0.672,0.561 0.785,1.346 0.561,2.354 -0.224,1.008 -0.784,1.793 -1.681,2.465 -1.008,0.561 -2.017,0.896 -3.36,0.896 -1.345,0 -2.241,-0.336 -2.913,-0.896 -0.561,-0.562 -0.785,-1.345 -0.561,-2.466 z m 1.793,0 c -0.112,0.783 0,1.232 0.336,1.68 0.336,0.336 0.896,0.561 1.568,0.561 0.784,0 1.345,-0.225 1.904,-0.561 0.561,-0.447 0.896,-0.896 1.121,-1.68 0.112,-0.672 0.112,-1.232 -0.224,-1.68 -0.448,-0.336 -0.896,-0.449 -1.681,-0.449 -0.785,0 -1.344,0.113 -1.904,0.449 -0.56,0.447 -0.896,1.008 -1.12,1.68 z m 7.394,3.248 1.568,-6.385 h 1.681 l 2.577,4.258 1.008,-4.258 h 1.68 l -1.569,6.385 h -1.792 l -2.577,-4.145 -1.008,4.145 z m 14.115,0 1.345,-5.377 h -2.577 l 0.224,-1.008 h 6.946 l -0.224,1.008 h -2.577 l -1.344,5.377 z m 5.601,0 1.569,-6.385 h 6.498 l -0.336,1.008 h -4.705 l -0.338,1.457 h 4.37 l -0.223,1.008 h -4.369 l -0.449,1.793 h 4.929 l -0.336,1.119 z m 14.341,-2.352 1.568,0.336 c -0.336,0.672 -1.008,1.232 -1.68,1.568 -0.674,0.336 -1.457,0.561 -2.467,0.561 -1.119,0 -2.016,-0.336 -2.576,-0.896 -0.672,-0.561 -0.783,-1.344 -0.561,-2.354 0.225,-1.119 0.785,-1.904 1.682,-2.465 0.896,-0.672 2.016,-0.895 3.248,-0.895 1.01,0 1.904,0.223 2.465,0.672 0.336,0.223 0.449,0.672 0.561,1.119 l -1.793,0.336 c 0,-0.336 -0.223,-0.559 -0.447,-0.783 -0.336,-0.225 -0.672,-0.225 -1.121,-0.225 -0.672,0 -1.232,0.113 -1.791,0.449 -0.449,0.336 -0.785,0.895 -1.01,1.68 -0.111,0.783 -0.111,1.344 0.225,1.68 0.336,0.336 0.785,0.561 1.457,0.561 0.447,0 0.896,-0.111 1.232,-0.336 0.447,-0.224 0.783,-0.56 1.008,-1.008 z m 2.687,2.352 1.569,-6.385 h 1.793 l -0.672,2.465 h 3.472 l 0.672,-2.465 h 1.682 l -1.569,6.385 h -1.681 l 0.672,-2.801 h -3.473 l -0.672,2.801 z m 8.852,0 1.568,-6.385 h 1.68 l 2.576,4.258 1.008,-4.258 h 1.681 l -1.568,6.385 h -1.793 l -2.465,-4.145 -1.119,4.145 z m 9.185,-3.248 c 0.225,-0.561 0.449,-1.121 0.896,-1.568 a 2.66,2.66 0 0 1 1.008,-0.896 4.179,4.179 0 0 1 1.232,-0.561 c 0.672,-0.111 1.232,-0.223 2.018,-0.223 1.232,0 2.24,0.223 2.801,0.895 0.672,0.561 0.895,1.346 0.672,2.354 -0.336,1.008 -0.896,1.793 -1.793,2.465 -0.896,0.561 -2.018,0.896 -3.361,0.896 -1.232,0 -2.24,-0.336 -2.912,-0.896 -0.561,-0.562 -0.785,-1.345 -0.561,-2.466 z m 1.905,0 c -0.225,0.783 -0.111,1.232 0.225,1.68 0.447,0.336 0.896,0.561 1.68,0.561 0.672,0 1.346,-0.225 1.793,-0.561 0.561,-0.447 1.008,-0.896 1.121,-1.68 0.223,-0.672 0.111,-1.232 -0.225,-1.68 -0.336,-0.336 -0.896,-0.449 -1.682,-0.449 -0.672,0 -1.344,0.113 -1.904,0.449 -0.448,0.447 -0.895,1.008 -1.008,1.68 z m 7.281,3.248 1.568,-6.385 h 1.793 l -1.344,5.266 h 4.481 l -0.223,1.119 z m 7.844,-3.248 c 0.223,-0.561 0.447,-1.121 0.895,-1.568 a 2.651,2.651 0 0 1 1.01,-0.896 c 0.447,-0.225 0.783,-0.447 1.232,-0.561 a 10.117,10.117 0 0 1 2.016,-0.223 c 1.232,0 2.24,0.223 2.912,0.895 0.561,0.561 0.785,1.346 0.561,2.354 -0.336,1.008 -0.896,1.793 -1.793,2.465 -0.895,0.561 -2.016,0.896 -3.359,0.896 -1.232,0 -2.242,-0.336 -2.801,-0.896 -0.673,-0.562 -0.898,-1.345 -0.673,-2.466 z m 1.904,0 c -0.225,0.783 -0.113,1.232 0.223,1.68 0.449,0.336 0.896,0.561 1.682,0.561 0.672,0 1.344,-0.225 1.791,-0.561 0.561,-0.447 1.01,-0.896 1.121,-1.68 0.225,-0.672 0.111,-1.232 -0.225,-1.68 -0.336,-0.336 -0.896,-0.449 -1.568,-0.449 -0.783,0 -1.455,0.113 -2.016,0.449 -0.449,0.447 -0.897,1.008 -1.008,1.68 z m 11.762,0.896 0.336,-1.121 h 3.809 l -0.672,2.576 c -0.447,0.225 -1.008,0.449 -1.791,0.674 a 7.08,7.08 0 0 1 -2.129,0.336 c -0.896,0 -1.568,-0.225 -2.24,-0.449 -0.561,-0.336 -1.01,-0.672 -1.232,-1.232 -0.225,-0.559 -0.225,-1.119 -0.113,-1.68 0.225,-0.672 0.561,-1.232 1.01,-1.793 0.559,-0.447 1.232,-0.896 1.904,-1.119 0.559,-0.225 1.344,-0.336 2.127,-0.336 1.121,0 1.906,0.111 2.465,0.447 0.561,0.336 0.785,0.785 0.896,1.344 l -1.904,0.336 c 0,-0.336 -0.225,-0.559 -0.447,-0.783 -0.336,-0.225 -0.785,-0.225 -1.232,-0.225 -0.785,0 -1.457,0.113 -2.018,0.449 -0.447,0.336 -0.783,0.895 -0.896,1.568 -0.223,0.783 -0.111,1.344 0.225,1.791 0.336,0.336 0.785,0.561 1.568,0.561 0.336,0 0.785,-0.111 1.121,-0.225 0.447,-0.111 0.783,-0.223 1.119,-0.336 l 0.225,-0.783 z m 7.283,2.352 0.558,-2.688 -2.24,-3.697 h 2.129 l 1.344,2.465 2.689,-2.465 h 2.016 l -4.145,3.697 -0.671,2.688 z M 2.834,121.641 h 172.523 l 1.793,-7.955 H 4.627 Z"
           id="path3-2"
           style="fill:#777777;fill-opacity:1;stroke:#7d7d7d;stroke-opacity:1" /></g></g></g></svg>
