<?xml version="1.0" encoding="UTF-8" standalone="no"?>
<!-- Created with Inkscape (http://www.inkscape.org/) -->

<svg
   width="90.307327mm"
   height="41.623253mm"
   viewBox="0 0 90.307327 41.623253"
   version="1.1"
   id="svg1"
   xml:space="preserve"
   xmlns:inkscape="http://www.inkscape.org/namespaces/inkscape"
   xmlns:sodipodi="http://sodipodi.sourceforge.net/DTD/sodipodi-0.dtd"
   xmlns="http://www.w3.org/2000/svg"
   xmlns:svg="http://www.w3.org/2000/svg"><sodipodi:namedview
     id="namedview1"
     pagecolor="#ffffff"
     bordercolor="#000000"
     borderopacity="0.25"
     inkscape:showpageshadow="2"
     inkscape:pageopacity="0.0"
     inkscape:pagecheckerboard="0"
     inkscape:deskcolor="#d1d1d1"
     inkscape:document-units="mm"><inkscape:page
       x="0"
       y="0"
       width="90.307327"
       height="41.623253"
       id="page2"
       margin="0"
       bleed="0" /></sodipodi:namedview><defs
     id="defs1" /><g
     inkscape:label="Layer 1"
     inkscape:groupmode="layer"
     id="layer1"
     transform="translate(-115.15776,-61.690619)"><g
       id="g34"><path
         d="m 165.43347,74.857554 v 0.757821 h 2.27196 c 0.6995,0 0.93232,0.175001 0.93232,0.873988 v 0.524497 c 0,0.64065 -0.23282,0.815652 -0.93232,0.815652 h -2.27196 c -0.69949,0 -0.87501,-0.175002 -0.87501,-0.815652 v -0.116672 l 0.6995,-0.174489 v 0.465649 h 2.62248 V 76.31436 h -2.27248 c -0.69949,0 -0.93231,-0.174994 -0.93231,-0.87398 v -0.349497 c 0,-0.699493 0.23282,-0.873987 0.93231,-0.873987 h 2.03965 c 0.64116,0 0.93231,0.174494 0.93231,0.757827 v 0.116159 l -0.75782,0.175 v -0.408331 z m 6.93305,-0.640656 h 0.81616 v 3.612108 h -0.81616 z m 5.1861,0 h 0.81565 v 2.970946 h 2.73812 v 0.641162 h -3.55377 z m 6.05958,0 h 0.99065 l 1.4563,2.621455 1.39899,-2.621455 h 0.87348 l -1.9813,3.612108 h -0.64117 z m 8.2732,0 h 3.73029 v 0.582319 h -2.91362 v 0.815653 h 1.68913 v 0.641162 h -1.68913 v 0.931812 h 2.91362 v 0.641162 h -3.73029 z m 10.54719,0.582319 c 0.23282,0 0.34898,0.05785 0.34898,0.291162 v 0.466161 c 0,0.232825 -0.11613,0.291154 -0.34898,0.291154 h -1.92298 v -1.048477 z m -2.73914,3.029789 h 0.81616 v -1.340149 h 0.81515 l 1.4563,1.340149 h 1.2245 l -1.69015,-1.340149 h 0.46565 c 0.58233,0 0.81616,-0.232825 0.81616,-0.698987 v -0.873987 c 0,-0.524492 -0.23383,-0.698985 -0.81616,-0.698985 h -3.08811 v 3.612108 z m -6.2919,10.837334 -4.1371,-7.166389 h 0.34949 V 80.97546 h -3.26362 v 0.524491 h 0.46667 l -4.02045,7.166389 h -0.81616 v 0.525002 h 3.14646 V 88.66634 h -0.46565 l 0.69948,-1.280797 h 5.1856 l 0.69948,1.280797 h -0.40833 v 0.525002 h 3.20478 V 88.66634 Z m -7.22572,-2.796958 1.80629,-3.320948 1.74748,3.320948 z m 14.79944,0.175507 h 1.10783 c 1.22347,0 1.80631,-0.408338 1.80631,-1.573479 v -1.922976 c 0,-1.106814 -0.58233,-1.572974 -1.80631,-1.572974 h -7.6919 v 0.524491 h 0.64115 v 7.166389 h -0.64115 v 0.525002 h 3.20478 V 88.66634 h -0.6995 v -2.621451 h 1.86465 l 3.26363,3.146453 h 2.73812 z m -4.07879,-1.397974 v -2.272976 h 4.31262 c 0.58233,0 0.874,0.116158 0.874,0.641162 v 0.990652 c 0,0.582322 -0.29116,0.641162 -0.874,0.641162 z M 183.96169,80.97546 h -9.43936 v 1.981305 h 0.525 v -0.524491 h 3.20377 v 6.234066 h -0.64066 v 0.525002 h 3.20479 V 88.66634 h -0.64116 v -6.234066 h 3.26363 v 0.524491 h 0.52399 z m -15.26611,14.74162 h -0.52399 v -3.146459 c -0.17551,0.466667 -1.04899,2.1558 -1.57349,3.146459 h -0.17549 c -0.52399,-0.990659 -1.33965,-2.622475 -1.45631,-3.146459 v 3.146459 h -0.46566 v -3.845952 h 0.58232 c 0.52399,0.990653 0.99066,2.039641 1.51464,3.146453 0.52399,-1.106812 1.04899,-2.1558 1.63182,-3.146453 h 0.46565 v 3.845952 z m 1.86463,-2.446962 c 0.64117,0 0.81616,0.523986 0.81616,1.047972 0,0.525002 -0.1755,1.10783 -0.81616,1.10783 -0.64064,0 -0.81514,-0.582321 -0.81514,-1.10783 0,-0.523986 0.1745,-1.047972 0.81514,-1.047972 z m 0,2.505291 c 0.81616,0 1.34066,-0.582321 1.34066,-1.457319 0,-0.873988 -0.64116,-1.397974 -1.34066,-1.397974 -0.69948,0 -1.39796,0.523986 -1.39796,1.397974 0,0.874998 0.58282,1.457319 1.39796,1.457319 z m 3.72928,-0.349489 c -0.29115,0.232824 -0.52397,0.349489 -0.87398,0.349489 -0.64116,0 -0.99065,-0.349489 -0.99065,-1.048988 v -1.747463 h 0.46667 v 1.630798 c 0,0.525003 0.23282,0.816164 0.69848,0.816164 0.40833,0 0.69948,-0.291161 0.69948,-0.816164 v -1.630798 h 0.52399 v 2.738122 h -0.52399 z m 1.69015,-2.097471 c 0.29116,-0.291161 0.64117,-0.408333 0.93232,-0.408333 0.64116,0 0.99065,0.349491 0.99065,1.047972 v 1.748481 h -0.46666 v -1.631816 c 0,-0.523986 -0.23282,-0.815146 -0.69949,-0.815146 -0.40732,0 -0.75682,0.29116 -0.75682,0.815146 v 1.631816 h -0.46666 v -2.738122 h 0.46666 z m 3.26212,-0.349491 h 0.69948 v 0.29116 h -0.69948 v 1.573481 c 0,0.349489 0.0583,0.582321 0.40833,0.582321 0.17449,0 0.29115,0 0.34949,-0.05834 l 0.11612,0.232826 c -0.17449,0.11666 -0.34898,0.175507 -0.52399,0.175507 -0.58232,0 -0.87398,-0.291161 -0.87398,-0.875 v -1.630798 h -0.3495 v -0.29116 h 0.3495 V 92.27946 l 0.52399,-0.175507 z m 2.79696,1.106307 c 0.0583,0.873987 -0.40733,1.340655 -0.75682,1.340655 -0.17551,0 -0.40833,-0.175513 -0.40833,-0.466668 0,-0.349496 0.23282,-0.58232 0.69949,-0.699498 z m 0,1.165142 c 0,0.175513 0,0.349496 0.0583,0.466673 h 0.58231 c -0.11612,-0.175513 -0.11612,-0.466673 -0.11612,-0.641162 v -1.223484 c 0,-0.815146 -0.64116,-0.932318 -1.04899,-0.932318 -0.40782,0 -0.69949,0.116661 -0.93232,0.349491 l 0.1745,0.232831 c 0.17551,-0.116672 0.40834,-0.29116 0.69949,-0.29116 0.29116,0 0.58232,0.232824 0.58232,0.582321 l -0.69949,0.174489 c -0.52399,0.175507 -0.93233,0.525002 -0.93233,0.990653 0,0.525002 0.29218,0.816163 0.75783,0.816163 a 0.913045,0.913045 0 0 0 0.6995,-0.349497 z m 1.28181,-2.271449 h 0.46666 v 2.738122 h -0.46666 z m -0.0583,-0.932323 c 0,-0.11666 0.11672,-0.29116 0.29115,-0.29116 0.23385,0 0.34949,0.174495 0.34949,0.29116 0,0.174495 -0.11612,0.349497 -0.34949,0.349497 -0.23282,0 -0.29115,-0.175002 -0.29115,-0.349497 z m 1.74848,1.281814 c 0.29116,-0.291161 0.64117,-0.408333 0.93232,-0.408333 0.64116,0 0.98964,0.349491 0.98964,1.047972 v 1.748481 h -0.46565 v -1.631816 c 0,-0.523986 -0.23283,-0.815146 -0.6995,-0.815146 -0.40731,0 -0.75681,0.29116 -0.75681,0.815146 v 1.631816 h -0.46667 v -2.738122 h 0.46667 z m 4.8361,-1.107319 h 0.46666 c 0.34949,0 0.64116,0.232826 0.64116,0.699493 0,0.29116 -0.11672,0.815146 -0.81616,0.815146 h -0.29116 V 92.22113 Z m -0.52451,3.49595 h 0.52399 v -1.573485 h 0.58232 l 0.874,1.631814 0.525,-0.11666 -0.93233,-1.690151 c 0.3495,-0.232824 0.64116,-0.523986 0.64116,-1.106812 0,-0.699493 -0.46666,-0.990653 -1.10783,-0.990653 h -1.10681 v 3.845952 z m 3.26262,-1.690151 c 0,-0.34949 0.23384,-0.756811 0.75783,-0.756811 0.40834,0 0.64116,0.349491 0.64116,0.756811 z m 1.80632,0.350003 c 0.0583,-0.699493 -0.23283,-1.456309 -1.04799,-1.456309 -0.64115,0 -1.34064,0.408337 -1.34064,1.397972 0,0.932323 0.58231,1.457321 1.45732,1.457321 0.29116,0 0.64014,-0.116661 0.93131,-0.291155 l -0.17451,-0.29116 c -0.17449,0.174489 -0.46564,0.232824 -0.7568,0.232824 -0.52501,0 -0.93334,-0.466667 -0.93334,-1.048988 h 1.86465 z m 2.03963,-0.990654 c -0.1745,-0.116158 -0.34949,-0.174495 -0.52399,-0.174495 -0.17551,0 -0.34949,0.116661 -0.34949,0.349497 0,0.232824 0.23283,0.349489 0.52399,0.582315 0.34949,0.23283 0.58232,0.465655 0.58232,0.873986 0,0.466668 -0.40733,0.757828 -0.93233,0.757828 -0.34949,0 -0.69948,-0.11666 -0.87398,-0.349489 l 0.23283,-0.232832 c 0.1755,0.116159 0.40833,0.232832 0.64115,0.232832 0.23283,0 0.46667,-0.116673 0.46667,-0.349497 0,-0.349489 -0.29116,-0.466667 -0.58231,-0.699491 -0.29217,-0.174497 -0.58334,-0.408339 -0.58334,-0.756818 0,-0.466667 0.40834,-0.699491 0.93233,-0.699491 0.29217,0 0.525,0.11666 0.69948,0.232824 z M 198.47,93.27012 c 0.64117,0 0.81617,0.523985 0.81617,1.047971 0,0.525003 -0.17551,1.10783 -0.81617,1.10783 -0.64065,0 -0.81514,-0.582321 -0.81514,-1.10783 -5.1e-4,-0.523986 0.17399,-1.047971 0.81514,-1.047971 z m 0,2.50529 c 0.81617,0 1.39899,-0.58232 1.39899,-1.457319 0,-0.873988 -0.69948,-1.397973 -1.39899,-1.397973 -0.69847,0 -1.33963,0.523985 -1.33963,1.397973 0,0.874999 0.52398,1.457319 1.33963,1.457319 z m 2.38965,-2.44696 0.17449,-0.233843 c 0.1166,-0.116159 0.29116,-0.174489 0.40833,-0.174489 0.1745,0 0.34951,0.05834 0.46566,0.232825 l -0.23283,0.349497 c -0.11672,-0.05834 -0.23283,-0.116673 -0.34949,-0.116673 -0.23283,0 -0.46566,0.233842 -0.46566,0.873987 v 1.457326 h -0.52499 v -2.738122 h 0.52499 v 0.349491 z m 2.1558,-0.349491 h 0.7568 v 0.291161 h -0.7568 v 1.57348 c 0,0.34949 0.0573,0.582321 0.40731,0.582321 0.17551,0 0.29117,0 0.34949,-0.05834 l 0.11672,0.232825 c -0.17549,0.116661 -0.34949,0.175507 -0.525,0.175507 -0.58232,0 -0.81514,-0.29116 -0.81514,-0.875 V 93.27012 h -0.40733 v -0.291161 h 0.40733 v -0.699497 l 0.46667,-0.175507 z M 171.5509,84.121914 h -5.12776 V 82.37394 h 5.36059 v 0.932323 l 1.69016,-0.408339 v -0.174489 -1.747974 h -0.52501 v 0.291159 c -0.34902,-0.232825 -0.81519,-0.349497 -1.51467,-0.349497 h -4.6611 c -1.51464,0 -2.03913,0.407826 -2.03913,1.9808 v 0.873988 c 0,1.573485 0.52398,1.981311 2.03913,1.981311 h 5.12776 v 1.864641 h -5.76892 V 86.62721 l -1.68913,0.34949 v 0.232825 c 0,1.514645 0.46565,1.922976 2.03912,1.922976 h 5.06944 c 1.51464,0 2.03913,-0.408331 2.03913,-1.922976 v -1.106812 c -5e-4,-1.572469 -0.52449,-1.9808 -2.03964,-1.9808 z M 136.35809,77.13002 c -1.63131,-3.030293 0.93232,-5.477254 4.60328,-7.283053 l -2.5053,-6.001752 c -0.0583,-0.232825 -0.58283,-1.514639 -0.58283,-1.514639 0,0 -0.58231,1.281814 -0.64065,1.514639 l -5.24443,12.527484 -13.16815,1.340149 c -0.29115,0.05834 -1.51462,0.232825 -1.51462,0.232825 0,0 1.04847,0.873987 1.16513,0.990652 l 6.35125,5.243924 c 3.14645,-0.815145 8.39038,-2.1558 10.37169,-3.029788 1.68912,-0.757322 2.38812,-1.747974 1.16463,-4.020441 z m 21.79185,0.815653 c 0,0 -1.16565,-0.174496 -1.45681,-0.232825 l -12.99317,-1.34015 -2.25523,-5.314427 -0.36877,0.20087 c -2.08123,1.291957 -3.20073,3.49392 0.002,7.211022 3.32095,3.962111 0.75783,7.166388 -2.3303,9.788856 -1.34017,1.106818 -9.38105,7.34139 -12.81866,9.963857 l -0.64116,2.912614 c -0.0578,0.23384 -0.34899,1.57348 -0.34899,1.57348 0,0 1.22349,-0.81514 1.34016,-0.87398 l 11.59465,-7.516395 11.36183,7.691895 c 0.0583,0.11616 1.34015,0.81515 1.34015,0.81515 0,0 -0.29116,-1.34066 -0.3495,-1.51464 l -3.03029,-14.216617 9.78885,-8.158059 c 0.11672,-0.116661 1.16567,-0.990652 1.16567,-0.990652 z m -16.79905,-7.125808 -0.2734,-0.740074 c -0.58232,0.291666 -1.04849,0.582826 -1.51464,0.873987 -0.29167,0.175001 -0.58284,0.407827 -0.93232,0.640651 -1.80632,1.456814 -2.50479,3.263125 -1.16515,5.593415 1.9808,3.37979 0.93232,4.836093 -1.34015,6.292907 -0.23334,0.175512 -0.52449,0.349496 -0.81565,0.525002 -0.40782,0.232825 -0.81565,0.465657 -1.28182,0.698481 -0.99065,0.582322 -3.14645,1.573479 -5.65175,2.680798 -3.84594,1.689134 -8.44871,3.553779 -10.31334,4.311601 l -2.44747,7.34139 c 1.45681,-0.873987 3.7871,-2.214131 6.40907,-3.787616 l 9.38102,-5.651239 c 1.34015,-0.874998 2.62197,-1.690145 3.78711,-2.389643 0.46616,-0.34949 0.93233,-0.641157 1.34015,-0.932317 1.16515,-0.756816 1.9808,-1.397973 2.38862,-1.747469 1.68964,-1.631816 2.44748,-4.079283 1.04899,-6.060083 -3.03993,-4.30145 -1.16768,-6.401456 1.22552,-7.577254 z"
         fill="#2b659f"
         id="path2-2"
         style="clip-rule:evenodd;fill:#777777;fill-opacity:1;fill-rule:evenodd;stroke:#7d7d7d;stroke-width:0.507247;stroke-opacity:1" /></g></g></svg>
